<?xml version="1.0" encoding="utf-8" standalone="no"?>
<!DOCTYPE svg PUBLIC "-//W3C//DTD SVG 1.1//EN"
  "http://www.w3.org/Graphics/SVG/1.1/DTD/svg11.dtd">
<svg xmlns:xlink="http://www.w3.org/1999/xlink" width="540pt" height="288pt" viewBox="0 0 540 288" xmlns="http://www.w3.org/2000/svg" version="1.1">
 <metadata>
  <rdf:RDF xmlns:dc="http://purl.org/dc/elements/1.1/" xmlns:cc="http://creativecommons.org/ns#" xmlns:rdf="http://www.w3.org/1999/02/22-rdf-syntax-ns#">
   <cc:Work>
    <dc:type rdf:resource="http://purl.org/dc/dcmitype/StillImage"/>
    <dc:date>2025-02-27T03:28:52.751301</dc:date>
    <dc:format>image/svg+xml</dc:format>
    <dc:creator>
     <cc:Agent>
      <dc:title>Matplotlib v3.10.0, https://matplotlib.org/</dc:title>
     </cc:Agent>
    </dc:creator>
   </cc:Work>
  </rdf:RDF>
 </metadata>
 <defs>
  <style type="text/css">*{stroke-linejoin: round; stroke-linecap: butt}</style>
 </defs>
 <g id="figure_1">
  <g id="patch_1">
   <path d="M 0 288 
L 540 288 
L 540 0 
L 0 0 
z
" style="fill: #ffffff"/>
  </g>
  <g id="axes_1">
   <g id="patch_2">
    <path d="M 56 246.04 
L 529.2 246.04 
L 529.2 10.8 
L 56 10.8 
z
" style="fill: #ffffff"/>
   </g>
   <g id="matplotlib.axis_1">
    <g id="xtick_1">
     <g id="line2d_1">
      <defs>
       <path id="mba988c1cbf" d="M 0 0 
L 0 3.5 
" style="stroke: #000000; stroke-width: 0.8"/>
      </defs>
      <g>
       <use xlink:href="#mba988c1cbf" x="77.509091" y="246.04" style="stroke: #000000; stroke-width: 0.8"/>
      </g>
     </g>
     <g id="text_1">
      <!-- 0 -->
      <g transform="translate(74.327841 260.638438) scale(0.1 -0.1)">
       <defs>
        <path id="DejaVuSans-30" d="M 2034 4250 
Q 1547 4250 1301 3770 
Q 1056 3291 1056 2328 
Q 1056 1369 1301 889 
Q 1547 409 2034 409 
Q 2525 409 2770 889 
Q 3016 1369 3016 2328 
Q 3016 3291 2770 3770 
Q 2525 4250 2034 4250 
z
M 2034 4750 
Q 2819 4750 3233 4129 
Q 3647 3509 3647 2328 
Q 3647 1150 3233 529 
Q 2819 -91 2034 -91 
Q 1250 -91 836 529 
Q 422 1150 422 2328 
Q 422 3509 836 4129 
Q 1250 4750 2034 4750 
z
" transform="scale(0.015625)"/>
       </defs>
       <use xlink:href="#DejaVuSans-30"/>
      </g>
     </g>
    </g>
    <g id="xtick_2">
     <g id="line2d_2">
      <g>
       <use xlink:href="#mba988c1cbf" x="149.44585" y="246.04" style="stroke: #000000; stroke-width: 0.8"/>
      </g>
     </g>
     <g id="text_2">
      <!-- 50 -->
      <g transform="translate(143.08335 260.638438) scale(0.1 -0.1)">
       <defs>
        <path id="DejaVuSans-35" d="M 691 4666 
L 3169 4666 
L 3169 4134 
L 1269 4134 
L 1269 2991 
Q 1406 3038 1543 3061 
Q 1681 3084 1819 3084 
Q 2600 3084 3056 2656 
Q 3513 2228 3513 1497 
Q 3513 744 3044 326 
Q 2575 -91 1722 -91 
Q 1428 -91 1123 -41 
Q 819 9 494 109 
L 494 744 
Q 775 591 1075 516 
Q 1375 441 1709 441 
Q 2250 441 2565 725 
Q 2881 1009 2881 1497 
Q 2881 1984 2565 2268 
Q 2250 2553 1709 2553 
Q 1456 2553 1204 2497 
Q 953 2441 691 2322 
L 691 4666 
z
" transform="scale(0.015625)"/>
       </defs>
       <use xlink:href="#DejaVuSans-35"/>
       <use xlink:href="#DejaVuSans-30" transform="translate(63.623047 0)"/>
      </g>
     </g>
    </g>
    <g id="xtick_3">
     <g id="line2d_3">
      <g>
       <use xlink:href="#mba988c1cbf" x="221.382609" y="246.04" style="stroke: #000000; stroke-width: 0.8"/>
      </g>
     </g>
     <g id="text_3">
      <!-- 100 -->
      <g transform="translate(211.838859 260.638438) scale(0.1 -0.1)">
       <defs>
        <path id="DejaVuSans-31" d="M 794 531 
L 1825 531 
L 1825 4091 
L 703 3866 
L 703 4441 
L 1819 4666 
L 2450 4666 
L 2450 531 
L 3481 531 
L 3481 0 
L 794 0 
L 794 531 
z
" transform="scale(0.015625)"/>
       </defs>
       <use xlink:href="#DejaVuSans-31"/>
       <use xlink:href="#DejaVuSans-30" transform="translate(63.623047 0)"/>
       <use xlink:href="#DejaVuSans-30" transform="translate(127.246094 0)"/>
      </g>
     </g>
    </g>
    <g id="xtick_4">
     <g id="line2d_4">
      <g>
       <use xlink:href="#mba988c1cbf" x="293.319368" y="246.04" style="stroke: #000000; stroke-width: 0.8"/>
      </g>
     </g>
     <g id="text_4">
      <!-- 150 -->
      <g transform="translate(283.775618 260.638438) scale(0.1 -0.1)">
       <use xlink:href="#DejaVuSans-31"/>
       <use xlink:href="#DejaVuSans-35" transform="translate(63.623047 0)"/>
       <use xlink:href="#DejaVuSans-30" transform="translate(127.246094 0)"/>
      </g>
     </g>
    </g>
    <g id="xtick_5">
     <g id="line2d_5">
      <g>
       <use xlink:href="#mba988c1cbf" x="365.256126" y="246.04" style="stroke: #000000; stroke-width: 0.8"/>
      </g>
     </g>
     <g id="text_5">
      <!-- 200 -->
      <g transform="translate(355.712376 260.638438) scale(0.1 -0.1)">
       <defs>
        <path id="DejaVuSans-32" d="M 1228 531 
L 3431 531 
L 3431 0 
L 469 0 
L 469 531 
Q 828 903 1448 1529 
Q 2069 2156 2228 2338 
Q 2531 2678 2651 2914 
Q 2772 3150 2772 3378 
Q 2772 3750 2511 3984 
Q 2250 4219 1831 4219 
Q 1534 4219 1204 4116 
Q 875 4013 500 3803 
L 500 4441 
Q 881 4594 1212 4672 
Q 1544 4750 1819 4750 
Q 2544 4750 2975 4387 
Q 3406 4025 3406 3419 
Q 3406 3131 3298 2873 
Q 3191 2616 2906 2266 
Q 2828 2175 2409 1742 
Q 1991 1309 1228 531 
z
" transform="scale(0.015625)"/>
       </defs>
       <use xlink:href="#DejaVuSans-32"/>
       <use xlink:href="#DejaVuSans-30" transform="translate(63.623047 0)"/>
       <use xlink:href="#DejaVuSans-30" transform="translate(127.246094 0)"/>
      </g>
     </g>
    </g>
    <g id="xtick_6">
     <g id="line2d_6">
      <g>
       <use xlink:href="#mba988c1cbf" x="437.192885" y="246.04" style="stroke: #000000; stroke-width: 0.8"/>
      </g>
     </g>
     <g id="text_6">
      <!-- 250 -->
      <g transform="translate(427.649135 260.638438) scale(0.1 -0.1)">
       <use xlink:href="#DejaVuSans-32"/>
       <use xlink:href="#DejaVuSans-35" transform="translate(63.623047 0)"/>
       <use xlink:href="#DejaVuSans-30" transform="translate(127.246094 0)"/>
      </g>
     </g>
    </g>
    <g id="xtick_7">
     <g id="line2d_7">
      <g>
       <use xlink:href="#mba988c1cbf" x="509.129644" y="246.04" style="stroke: #000000; stroke-width: 0.8"/>
      </g>
     </g>
     <g id="text_7">
      <!-- 300 -->
      <g transform="translate(499.585894 260.638438) scale(0.1 -0.1)">
       <defs>
        <path id="DejaVuSans-33" d="M 2597 2516 
Q 3050 2419 3304 2112 
Q 3559 1806 3559 1356 
Q 3559 666 3084 287 
Q 2609 -91 1734 -91 
Q 1441 -91 1130 -33 
Q 819 25 488 141 
L 488 750 
Q 750 597 1062 519 
Q 1375 441 1716 441 
Q 2309 441 2620 675 
Q 2931 909 2931 1356 
Q 2931 1769 2642 2001 
Q 2353 2234 1838 2234 
L 1294 2234 
L 1294 2753 
L 1863 2753 
Q 2328 2753 2575 2939 
Q 2822 3125 2822 3475 
Q 2822 3834 2567 4026 
Q 2313 4219 1838 4219 
Q 1578 4219 1281 4162 
Q 984 4106 628 3988 
L 628 4550 
Q 988 4650 1302 4700 
Q 1616 4750 1894 4750 
Q 2613 4750 3031 4423 
Q 3450 4097 3450 3541 
Q 3450 3153 3228 2886 
Q 3006 2619 2597 2516 
z
" transform="scale(0.015625)"/>
       </defs>
       <use xlink:href="#DejaVuSans-33"/>
       <use xlink:href="#DejaVuSans-30" transform="translate(63.623047 0)"/>
       <use xlink:href="#DejaVuSans-30" transform="translate(127.246094 0)"/>
      </g>
     </g>
    </g>
    <g id="text_8">
     <!-- Training Iteration -->
     <g transform="translate(250.076563 274.316562) scale(0.1 -0.1)">
      <defs>
       <path id="DejaVuSans-54" d="M -19 4666 
L 3928 4666 
L 3928 4134 
L 2272 4134 
L 2272 0 
L 1638 0 
L 1638 4134 
L -19 4134 
L -19 4666 
z
" transform="scale(0.015625)"/>
       <path id="DejaVuSans-72" d="M 2631 2963 
Q 2534 3019 2420 3045 
Q 2306 3072 2169 3072 
Q 1681 3072 1420 2755 
Q 1159 2438 1159 1844 
L 1159 0 
L 581 0 
L 581 3500 
L 1159 3500 
L 1159 2956 
Q 1341 3275 1631 3429 
Q 1922 3584 2338 3584 
Q 2397 3584 2469 3576 
Q 2541 3569 2628 3553 
L 2631 2963 
z
" transform="scale(0.015625)"/>
       <path id="DejaVuSans-61" d="M 2194 1759 
Q 1497 1759 1228 1600 
Q 959 1441 959 1056 
Q 959 750 1161 570 
Q 1363 391 1709 391 
Q 2188 391 2477 730 
Q 2766 1069 2766 1631 
L 2766 1759 
L 2194 1759 
z
M 3341 1997 
L 3341 0 
L 2766 0 
L 2766 531 
Q 2569 213 2275 61 
Q 1981 -91 1556 -91 
Q 1019 -91 701 211 
Q 384 513 384 1019 
Q 384 1609 779 1909 
Q 1175 2209 1959 2209 
L 2766 2209 
L 2766 2266 
Q 2766 2663 2505 2880 
Q 2244 3097 1772 3097 
Q 1472 3097 1187 3025 
Q 903 2953 641 2809 
L 641 3341 
Q 956 3463 1253 3523 
Q 1550 3584 1831 3584 
Q 2591 3584 2966 3190 
Q 3341 2797 3341 1997 
z
" transform="scale(0.015625)"/>
       <path id="DejaVuSans-69" d="M 603 3500 
L 1178 3500 
L 1178 0 
L 603 0 
L 603 3500 
z
M 603 4863 
L 1178 4863 
L 1178 4134 
L 603 4134 
L 603 4863 
z
" transform="scale(0.015625)"/>
       <path id="DejaVuSans-6e" d="M 3513 2113 
L 3513 0 
L 2938 0 
L 2938 2094 
Q 2938 2591 2744 2837 
Q 2550 3084 2163 3084 
Q 1697 3084 1428 2787 
Q 1159 2491 1159 1978 
L 1159 0 
L 581 0 
L 581 3500 
L 1159 3500 
L 1159 2956 
Q 1366 3272 1645 3428 
Q 1925 3584 2291 3584 
Q 2894 3584 3203 3211 
Q 3513 2838 3513 2113 
z
" transform="scale(0.015625)"/>
       <path id="DejaVuSans-67" d="M 2906 1791 
Q 2906 2416 2648 2759 
Q 2391 3103 1925 3103 
Q 1463 3103 1205 2759 
Q 947 2416 947 1791 
Q 947 1169 1205 825 
Q 1463 481 1925 481 
Q 2391 481 2648 825 
Q 2906 1169 2906 1791 
z
M 3481 434 
Q 3481 -459 3084 -895 
Q 2688 -1331 1869 -1331 
Q 1566 -1331 1297 -1286 
Q 1028 -1241 775 -1147 
L 775 -588 
Q 1028 -725 1275 -790 
Q 1522 -856 1778 -856 
Q 2344 -856 2625 -561 
Q 2906 -266 2906 331 
L 2906 616 
Q 2728 306 2450 153 
Q 2172 0 1784 0 
Q 1141 0 747 490 
Q 353 981 353 1791 
Q 353 2603 747 3093 
Q 1141 3584 1784 3584 
Q 2172 3584 2450 3431 
Q 2728 3278 2906 2969 
L 2906 3500 
L 3481 3500 
L 3481 434 
z
" transform="scale(0.015625)"/>
       <path id="DejaVuSans-20" transform="scale(0.015625)"/>
       <path id="DejaVuSans-49" d="M 628 4666 
L 1259 4666 
L 1259 0 
L 628 0 
L 628 4666 
z
" transform="scale(0.015625)"/>
       <path id="DejaVuSans-74" d="M 1172 4494 
L 1172 3500 
L 2356 3500 
L 2356 3053 
L 1172 3053 
L 1172 1153 
Q 1172 725 1289 603 
Q 1406 481 1766 481 
L 2356 481 
L 2356 0 
L 1766 0 
Q 1100 0 847 248 
Q 594 497 594 1153 
L 594 3053 
L 172 3053 
L 172 3500 
L 594 3500 
L 594 4494 
L 1172 4494 
z
" transform="scale(0.015625)"/>
       <path id="DejaVuSans-65" d="M 3597 1894 
L 3597 1613 
L 953 1613 
Q 991 1019 1311 708 
Q 1631 397 2203 397 
Q 2534 397 2845 478 
Q 3156 559 3463 722 
L 3463 178 
Q 3153 47 2828 -22 
Q 2503 -91 2169 -91 
Q 1331 -91 842 396 
Q 353 884 353 1716 
Q 353 2575 817 3079 
Q 1281 3584 2069 3584 
Q 2775 3584 3186 3129 
Q 3597 2675 3597 1894 
z
M 3022 2063 
Q 3016 2534 2758 2815 
Q 2500 3097 2075 3097 
Q 1594 3097 1305 2825 
Q 1016 2553 972 2059 
L 3022 2063 
z
" transform="scale(0.015625)"/>
       <path id="DejaVuSans-6f" d="M 1959 3097 
Q 1497 3097 1228 2736 
Q 959 2375 959 1747 
Q 959 1119 1226 758 
Q 1494 397 1959 397 
Q 2419 397 2687 759 
Q 2956 1122 2956 1747 
Q 2956 2369 2687 2733 
Q 2419 3097 1959 3097 
z
M 1959 3584 
Q 2709 3584 3137 3096 
Q 3566 2609 3566 1747 
Q 3566 888 3137 398 
Q 2709 -91 1959 -91 
Q 1206 -91 779 398 
Q 353 888 353 1747 
Q 353 2609 779 3096 
Q 1206 3584 1959 3584 
z
" transform="scale(0.015625)"/>
      </defs>
      <use xlink:href="#DejaVuSans-54"/>
      <use xlink:href="#DejaVuSans-72" transform="translate(46.333984 0)"/>
      <use xlink:href="#DejaVuSans-61" transform="translate(87.447266 0)"/>
      <use xlink:href="#DejaVuSans-69" transform="translate(148.726562 0)"/>
      <use xlink:href="#DejaVuSans-6e" transform="translate(176.509766 0)"/>
      <use xlink:href="#DejaVuSans-69" transform="translate(239.888672 0)"/>
      <use xlink:href="#DejaVuSans-6e" transform="translate(267.671875 0)"/>
      <use xlink:href="#DejaVuSans-67" transform="translate(331.050781 0)"/>
      <use xlink:href="#DejaVuSans-20" transform="translate(394.527344 0)"/>
      <use xlink:href="#DejaVuSans-49" transform="translate(426.314453 0)"/>
      <use xlink:href="#DejaVuSans-74" transform="translate(455.806641 0)"/>
      <use xlink:href="#DejaVuSans-65" transform="translate(495.015625 0)"/>
      <use xlink:href="#DejaVuSans-72" transform="translate(556.539062 0)"/>
      <use xlink:href="#DejaVuSans-61" transform="translate(597.652344 0)"/>
      <use xlink:href="#DejaVuSans-74" transform="translate(658.931641 0)"/>
      <use xlink:href="#DejaVuSans-69" transform="translate(698.140625 0)"/>
      <use xlink:href="#DejaVuSans-6f" transform="translate(725.923828 0)"/>
      <use xlink:href="#DejaVuSans-6e" transform="translate(787.105469 0)"/>
     </g>
    </g>
   </g>
   <g id="matplotlib.axis_2">
    <g id="ytick_1">
     <g id="line2d_8">
      <defs>
       <path id="m5e0a85f523" d="M 0 0 
L -3.5 0 
" style="stroke: #000000; stroke-width: 0.8"/>
      </defs>
      <g>
       <use xlink:href="#m5e0a85f523" x="56" y="238.254034" style="stroke: #000000; stroke-width: 0.8"/>
      </g>
     </g>
     <g id="text_9">
      <!-- −0.4 -->
      <g transform="translate(24.717188 242.053253) scale(0.1 -0.1)">
       <defs>
        <path id="DejaVuSans-2212" d="M 678 2272 
L 4684 2272 
L 4684 1741 
L 678 1741 
L 678 2272 
z
" transform="scale(0.015625)"/>
        <path id="DejaVuSans-2e" d="M 684 794 
L 1344 794 
L 1344 0 
L 684 0 
L 684 794 
z
" transform="scale(0.015625)"/>
        <path id="DejaVuSans-34" d="M 2419 4116 
L 825 1625 
L 2419 1625 
L 2419 4116 
z
M 2253 4666 
L 3047 4666 
L 3047 1625 
L 3713 1625 
L 3713 1100 
L 3047 1100 
L 3047 0 
L 2419 0 
L 2419 1100 
L 313 1100 
L 313 1709 
L 2253 4666 
z
" transform="scale(0.015625)"/>
       </defs>
       <use xlink:href="#DejaVuSans-2212"/>
       <use xlink:href="#DejaVuSans-30" transform="translate(83.789062 0)"/>
       <use xlink:href="#DejaVuSans-2e" transform="translate(147.412109 0)"/>
       <use xlink:href="#DejaVuSans-34" transform="translate(179.199219 0)"/>
      </g>
     </g>
    </g>
    <g id="ytick_2">
     <g id="line2d_9">
      <g>
       <use xlink:href="#m5e0a85f523" x="56" y="189.325861" style="stroke: #000000; stroke-width: 0.8"/>
      </g>
     </g>
     <g id="text_10">
      <!-- −0.2 -->
      <g transform="translate(24.717188 193.125079) scale(0.1 -0.1)">
       <use xlink:href="#DejaVuSans-2212"/>
       <use xlink:href="#DejaVuSans-30" transform="translate(83.789062 0)"/>
       <use xlink:href="#DejaVuSans-2e" transform="translate(147.412109 0)"/>
       <use xlink:href="#DejaVuSans-32" transform="translate(179.199219 0)"/>
      </g>
     </g>
    </g>
    <g id="ytick_3">
     <g id="line2d_10">
      <g>
       <use xlink:href="#m5e0a85f523" x="56" y="140.397687" style="stroke: #000000; stroke-width: 0.8"/>
      </g>
     </g>
     <g id="text_11">
      <!-- 0.0 -->
      <g transform="translate(33.096875 144.196906) scale(0.1 -0.1)">
       <use xlink:href="#DejaVuSans-30"/>
       <use xlink:href="#DejaVuSans-2e" transform="translate(63.623047 0)"/>
       <use xlink:href="#DejaVuSans-30" transform="translate(95.410156 0)"/>
      </g>
     </g>
    </g>
    <g id="ytick_4">
     <g id="line2d_11">
      <g>
       <use xlink:href="#m5e0a85f523" x="56" y="91.469514" style="stroke: #000000; stroke-width: 0.8"/>
      </g>
     </g>
     <g id="text_12">
      <!-- 0.2 -->
      <g transform="translate(33.096875 95.268733) scale(0.1 -0.1)">
       <use xlink:href="#DejaVuSans-30"/>
       <use xlink:href="#DejaVuSans-2e" transform="translate(63.623047 0)"/>
       <use xlink:href="#DejaVuSans-32" transform="translate(95.410156 0)"/>
      </g>
     </g>
    </g>
    <g id="ytick_5">
     <g id="line2d_12">
      <g>
       <use xlink:href="#m5e0a85f523" x="56" y="42.541341" style="stroke: #000000; stroke-width: 0.8"/>
      </g>
     </g>
     <g id="text_13">
      <!-- 0.4 -->
      <g transform="translate(33.096875 46.34056) scale(0.1 -0.1)">
       <use xlink:href="#DejaVuSans-30"/>
       <use xlink:href="#DejaVuSans-2e" transform="translate(63.623047 0)"/>
       <use xlink:href="#DejaVuSans-34" transform="translate(95.410156 0)"/>
      </g>
     </g>
    </g>
    <g id="text_14">
     <!-- Reward -->
     <g transform="translate(18.6375 147.041094) rotate(-90) scale(0.1 -0.1)">
      <defs>
       <path id="DejaVuSans-52" d="M 2841 2188 
Q 3044 2119 3236 1894 
Q 3428 1669 3622 1275 
L 4263 0 
L 3584 0 
L 2988 1197 
Q 2756 1666 2539 1819 
Q 2322 1972 1947 1972 
L 1259 1972 
L 1259 0 
L 628 0 
L 628 4666 
L 2053 4666 
Q 2853 4666 3247 4331 
Q 3641 3997 3641 3322 
Q 3641 2881 3436 2590 
Q 3231 2300 2841 2188 
z
M 1259 4147 
L 1259 2491 
L 2053 2491 
Q 2509 2491 2742 2702 
Q 2975 2913 2975 3322 
Q 2975 3731 2742 3939 
Q 2509 4147 2053 4147 
L 1259 4147 
z
" transform="scale(0.015625)"/>
       <path id="DejaVuSans-77" d="M 269 3500 
L 844 3500 
L 1563 769 
L 2278 3500 
L 2956 3500 
L 3675 769 
L 4391 3500 
L 4966 3500 
L 4050 0 
L 3372 0 
L 2619 2869 
L 1863 0 
L 1184 0 
L 269 3500 
z
" transform="scale(0.015625)"/>
       <path id="DejaVuSans-64" d="M 2906 2969 
L 2906 4863 
L 3481 4863 
L 3481 0 
L 2906 0 
L 2906 525 
Q 2725 213 2448 61 
Q 2172 -91 1784 -91 
Q 1150 -91 751 415 
Q 353 922 353 1747 
Q 353 2572 751 3078 
Q 1150 3584 1784 3584 
Q 2172 3584 2448 3432 
Q 2725 3281 2906 2969 
z
M 947 1747 
Q 947 1113 1208 752 
Q 1469 391 1925 391 
Q 2381 391 2643 752 
Q 2906 1113 2906 1747 
Q 2906 2381 2643 2742 
Q 2381 3103 1925 3103 
Q 1469 3103 1208 2742 
Q 947 2381 947 1747 
z
" transform="scale(0.015625)"/>
      </defs>
      <use xlink:href="#DejaVuSans-52"/>
      <use xlink:href="#DejaVuSans-65" transform="translate(64.982422 0)"/>
      <use xlink:href="#DejaVuSans-77" transform="translate(126.505859 0)"/>
      <use xlink:href="#DejaVuSans-61" transform="translate(208.292969 0)"/>
      <use xlink:href="#DejaVuSans-72" transform="translate(269.572266 0)"/>
      <use xlink:href="#DejaVuSans-64" transform="translate(308.935547 0)"/>
     </g>
    </g>
   </g>
   <g id="line2d_13">
    <path d="M 77.509091 178.979956 
L 78.947826 199.559896 
L 80.386561 171.692104 
L 81.825296 164.081037 
L 83.264032 158.707232 
L 84.702767 174.722729 
L 86.141502 163.881011 
L 87.580237 172.588812 
L 89.018972 163.627808 
L 90.457708 210.538872 
L 91.896443 217.84025 
L 93.335178 142.577516 
L 94.773913 199.225993 
L 96.212648 203.631457 
L 97.651383 157.75274 
L 99.090119 140.478252 
L 100.528854 148.671485 
L 101.967589 149.12541 
L 103.406324 141.81338 
L 104.845059 148.916791 
L 106.283794 138.999037 
L 107.72253 142.123546 
L 109.161265 143.430518 
L 110.6 139.11999 
L 112.038735 143.914283 
L 113.47747 147.28895 
L 114.916206 155.938378 
L 116.354941 147.382103 
L 117.793676 224.903782 
L 119.232411 175.276995 
L 120.671146 136.356082 
L 122.109881 139.971726 
L 123.548617 149.701462 
L 124.987352 152.146141 
L 126.426087 143.394349 
L 127.864822 150.562519 
L 129.303557 188.06864 
L 130.742292 176.790955 
L 132.181028 178.169033 
L 133.619763 150.043209 
L 135.058498 227.362784 
L 136.497233 128.010527 
L 137.935968 158.034714 
L 139.374704 135.527002 
L 140.813439 158.902024 
L 142.252174 146.776359 
L 143.690909 137.805342 
L 145.129644 151.811681 
L 146.568379 155.421827 
L 148.007115 145.410178 
L 149.44585 143.931464 
L 150.884585 146.326427 
L 152.32332 151.228615 
L 153.762055 142.265578 
L 155.200791 176.176665 
L 156.639526 117.737068 
L 158.078261 142.410646 
L 159.516996 157.157921 
L 160.955731 218.703142 
L 162.394466 222.700625 
L 163.833202 210.19727 
L 165.271937 135.065466 
L 166.710672 143.249676 
L 168.149407 139.600334 
L 169.588142 159.979449 
L 171.026877 188.974323 
L 172.465613 146.113435 
L 173.904348 161.402632 
L 175.343083 145.147528 
L 176.781818 161.518742 
L 178.220553 143.095916 
L 179.659289 151.957612 
L 181.098024 141.869978 
L 182.536759 144.316692 
L 183.975494 147.663746 
L 185.414229 232.02224 
L 186.852964 150.27039 
L 188.2917 141.609816 
L 189.730435 150.431644 
L 191.16917 60.096563 
L 192.607905 136.732928 
L 194.04664 162.073602 
L 195.485375 137.481577 
L 196.924111 151.640198 
L 198.362846 153.815213 
L 199.801581 123.118682 
L 201.240316 133.147753 
L 202.679051 138.252983 
L 204.117787 140.871693 
L 205.556522 139.501511 
L 206.995257 143.86309 
L 208.433992 146.143055 
L 209.872727 140.985993 
L 211.311462 142.31615 
L 212.750198 143.330911 
L 214.188933 140.469139 
L 215.627668 141.088633 
L 217.066403 111.98491 
L 218.505138 153.099248 
L 219.943874 134.931493 
L 221.382609 143.994814 
L 222.821344 82.20794 
L 224.260079 155.794613 
L 225.698814 104.474336 
L 227.137549 105.806059 
L 228.576285 149.067402 
L 230.01502 148.231135 
L 231.453755 126.961518 
L 232.89249 165.007831 
L 234.331225 156.581945 
L 235.76996 140.979011 
L 237.208696 179.148715 
L 238.647431 166.447945 
L 240.086166 116.927224 
L 241.524901 144.152591 
L 242.963636 128.986133 
L 244.402372 142.61038 
L 247.279842 184.119266 
L 248.718577 69.03237 
L 250.157312 91.252476 
L 251.596047 144.780938 
L 253.034783 147.73104 
L 254.473518 213.177007 
L 255.912253 160.908977 
L 257.350988 199.409835 
L 258.789723 35.586336 
L 260.228458 92.072396 
L 261.667194 164.870986 
L 263.105929 153.311084 
L 264.544664 135.357807 
L 265.983399 143.101381 
L 267.422134 136.140602 
L 268.86087 127.040025 
L 270.299605 134.404613 
L 271.73834 135.763249 
L 273.177075 132.489456 
L 274.61581 139.945569 
L 276.054545 143.571443 
L 277.493281 136.682308 
L 278.932016 187.209321 
L 280.370751 149.908953 
L 281.809486 144.383269 
L 283.248221 134.270271 
L 284.686957 129.831204 
L 286.125692 147.878075 
L 287.564427 141.551061 
L 289.003162 146.737415 
L 290.441897 140.083706 
L 291.880632 137.593703 
L 293.319368 139.931146 
L 294.758103 136.199643 
L 296.196838 142.670338 
L 297.635573 146.378023 
L 299.074308 148.86705 
L 300.513043 124.003402 
L 301.951779 146.555966 
L 303.390514 153.114975 
L 304.829249 235.347273 
L 306.267984 136.996018 
L 307.706719 140.126605 
L 309.145455 169.122777 
L 310.58419 180.921918 
L 312.022925 156.08017 
L 313.46166 196.590251 
L 314.900395 144.628276 
L 316.33913 111.178534 
L 317.777866 143.034714 
L 319.216601 133.452895 
L 320.655336 140.323851 
L 322.094071 161.741494 
L 323.532806 157.957087 
L 324.971542 110.537236 
L 326.410277 153.34994 
L 327.849012 134.077885 
L 329.287747 157.204942 
L 330.726482 151.821801 
L 332.165217 139.805759 
L 333.603953 156.553341 
L 335.042688 109.292948 
L 336.481423 142.835631 
L 337.920158 147.195375 
L 339.358893 216.457185 
L 340.797628 34.105219 
L 342.236364 175.375707 
L 343.675099 131.853564 
L 345.113834 129.886311 
L 346.552569 114.972254 
L 347.991304 139.141811 
L 349.43004 133.081364 
L 350.868775 162.257037 
L 352.30751 158.769651 
L 353.746245 109.125542 
L 355.18498 115.547923 
L 356.623715 124.982719 
L 358.062451 133.159286 
L 359.501186 130.935071 
L 360.939921 157.173618 
L 362.378656 135.217257 
L 363.817391 147.750689 
L 365.256126 162.167327 
L 366.694862 156.580455 
L 368.133597 160.741139 
L 369.572332 141.581395 
L 371.011067 147.302121 
L 372.449802 138.609315 
L 373.888538 143.381444 
L 375.327273 132.09909 
L 376.766008 138.418911 
L 378.204743 143.7991 
L 379.643478 134.123225 
L 381.082213 140.955001 
L 382.520949 142.79541 
L 383.959684 142.347639 
L 385.398419 139.077316 
L 386.837154 141.456681 
L 388.275889 145.645727 
L 389.714625 142.940563 
L 391.15336 141.372151 
L 392.592095 141.322776 
L 394.03083 143.82908 
L 395.469565 126.32651 
L 396.9083 155.168991 
L 398.347036 142.606736 
L 399.785771 139.183445 
L 401.224506 152.447381 
L 402.663241 156.676093 
L 404.101976 126.702274 
L 406.979447 142.352925 
L 408.418182 145.008394 
L 409.856917 145.851726 
L 411.295652 138.59423 
L 412.734387 145.581855 
L 414.173123 180.628027 
L 415.611858 123.789312 
L 417.050593 126.397098 
L 418.489328 135.726374 
L 419.928063 162.916279 
L 421.366798 143.407194 
L 422.805534 115.627273 
L 424.244269 130.036643 
L 425.683004 157.9943 
L 427.121739 193.460754 
L 428.560474 192.302496 
L 431.437945 129.637266 
L 432.87668 165.877214 
L 434.315415 129.165342 
L 435.75415 125.086722 
L 437.192885 137.082677 
L 438.631621 87.302719 
L 440.070356 21.492727 
L 441.509091 121.576398 
L 442.947826 177.687647 
L 444.386561 132.424719 
L 445.825296 161.227826 
L 447.264032 106.962484 
L 448.702767 132.99785 
L 450.141502 117.124613 
L 451.580237 80.411824 
L 453.018972 126.304228 
L 454.457708 125.716544 
L 455.896443 143.576672 
L 457.335178 163.179009 
L 458.773913 148.241367 
L 460.212648 152.334429 
L 461.651383 63.963264 
L 463.090119 146.423575 
L 464.528854 105.60724 
L 465.967589 122.262488 
L 467.406324 149.711782 
L 468.845059 130.97763 
L 470.283794 126.898008 
L 471.72253 137.399665 
L 473.161265 143.473987 
L 474.6 139.879005 
L 476.038735 148.701024 
L 477.47747 89.966375 
L 478.916206 93.518827 
L 480.354941 147.4392 
L 481.793676 131.967425 
L 483.232411 150.579819 
L 484.671146 138.346541 
L 486.109881 168.282198 
L 487.548617 122.097984 
L 488.987352 134.574017 
L 490.426087 131.119396 
L 491.864822 141.113178 
L 493.303557 144.618936 
L 494.742292 139.835224 
L 496.181028 170.988185 
L 497.619763 32.584025 
L 499.058498 133.38325 
L 500.497233 107.387707 
L 501.935968 138.060207 
L 503.374704 145.117504 
L 504.813439 120.949913 
L 506.252174 146.433242 
L 507.690909 127.557472 
L 507.690909 127.557472 
" clip-path="url(#p69f9693ef7)" style="fill: none; stroke: #1f77b4; stroke-width: 1.5; stroke-linecap: square"/>
   </g>
   <g id="line2d_14">
    <path d="M 56 144.716384 
L 529.2 144.716384 
" clip-path="url(#p69f9693ef7)" style="fill: none; stroke-dasharray: 5.55,2.4; stroke-dashoffset: 0; stroke: #1f77b4; stroke-width: 1.5"/>
   </g>
   <g id="line2d_15">
    <path d="M 77.509091 154.179855 
L 78.947826 144.33304 
L 80.386561 143.137627 
L 81.825296 143.656173 
L 83.264032 141.767329 
L 84.702767 142.015131 
L 86.141502 141.239248 
L 87.580237 142.163411 
L 89.018972 142.246173 
L 90.457708 139.684651 
L 91.896443 140.858887 
L 94.773913 140.617355 
L 96.212648 140.314133 
L 97.651383 141.737342 
L 99.090119 141.387506 
L 100.528854 141.56857 
L 101.967589 141.273867 
L 103.406324 141.164301 
L 104.845059 141.464938 
L 106.283794 140.704023 
L 107.72253 140.88894 
L 109.161265 141.364261 
L 110.6 141.1913 
L 112.038735 149.780259 
L 113.47747 148.23567 
L 114.916206 147.590119 
L 116.354941 144.743054 
L 117.793676 142.471573 
L 119.232411 139.695959 
L 120.671146 141.603379 
L 122.109881 159.716204 
L 123.548617 151.308536 
L 124.987352 146.85579 
L 126.426087 144.16271 
L 127.864822 143.580381 
L 129.303557 144.415079 
L 130.742292 166.239324 
L 132.181028 147.287383 
L 133.619763 144.680789 
L 135.058498 174.978774 
L 136.497233 145.648884 
L 137.935968 144.686343 
L 139.374704 142.458453 
L 140.813439 145.897302 
L 142.252174 142.426256 
L 143.690909 142.849349 
L 145.129644 141.350382 
L 146.568379 143.266803 
L 148.007115 139.834149 
L 149.44585 143.042179 
L 150.884585 143.311637 
L 152.32332 141.299989 
L 153.762055 165.185444 
L 155.200791 142.528318 
L 156.639526 140.51492 
L 158.078261 142.550698 
L 160.955731 145.671008 
L 162.394466 155.902048 
L 163.833202 139.602038 
L 165.271937 140.067616 
L 166.710672 141.036957 
L 168.149407 142.273323 
L 169.588142 139.135264 
L 171.026877 143.109078 
L 172.465613 142.574599 
L 173.904348 146.355121 
L 175.343083 130.858599 
L 176.781818 141.114222 
L 178.220553 139.735909 
L 179.659289 142.826931 
L 181.098024 138.540185 
L 182.536759 139.003557 
L 183.975494 139.642814 
L 185.414229 141.879523 
L 186.852964 142.706482 
L 188.2917 144.002575 
L 189.730435 139.278534 
L 191.16917 138.025043 
L 192.607905 141.259256 
L 194.04664 137.067236 
L 195.485375 140.833129 
L 196.924111 139.154567 
L 198.362846 139.586445 
L 199.801581 140.919459 
L 201.240316 140.793861 
L 202.679051 154.245804 
L 204.117787 134.293622 
L 205.556522 143.843025 
L 206.995257 138.273922 
L 208.433992 144.852768 
L 209.872727 141.72808 
L 211.311462 137.228347 
L 212.750198 134.821213 
L 215.627668 137.241358 
L 217.066403 140.778461 
L 219.943874 137.970667 
L 221.382609 138.70648 
L 222.821344 138.930977 
L 225.698814 139.78714 
L 227.137549 139.879533 
L 228.576285 129.427817 
L 230.01502 130.515678 
L 231.453755 135.543674 
L 232.89249 137.147965 
L 234.331225 120.593654 
L 235.76996 135.314811 
L 237.208696 134.601985 
L 238.647431 138.2239 
L 240.086166 137.02267 
L 241.524901 137.813396 
L 242.963636 137.526411 
L 244.402372 138.706575 
L 245.841107 140.538374 
L 247.279842 138.958945 
L 248.718577 138.428405 
L 250.157312 140.361738 
L 251.596047 138.560357 
L 253.034783 139.386282 
L 254.473518 128.547291 
L 255.912253 134.399782 
L 257.350988 134.701393 
L 258.789723 135.188162 
L 260.228458 136.306344 
L 261.667194 138.588591 
L 263.105929 138.480936 
L 264.544664 139.130771 
L 265.983399 136.057408 
L 267.422134 136.049657 
L 270.299605 138.05594 
L 271.73834 131.265457 
L 273.177075 137.262518 
L 274.61581 139.503224 
L 277.493281 139.028152 
L 278.932016 119.721217 
L 280.370751 132.291521 
L 281.809486 133.78753 
L 283.248221 134.687677 
L 284.686957 135.417391 
L 286.125692 136.975608 
L 287.564427 137.940075 
L 289.003162 138.415591 
L 290.441897 119.540406 
L 291.880632 131.739705 
L 294.758103 135.213303 
L 296.196838 131.123056 
L 297.635573 134.387589 
L 299.074308 136.9424 
L 300.513043 121.898577 
L 301.951779 129.807007 
L 303.390514 132.753599 
L 304.829249 135.224333 
L 306.267984 136.08667 
L 307.706719 137.097605 
L 309.145455 137.158997 
L 310.58419 137.530059 
L 312.022925 137.707588 
L 313.46166 120.78198 
L 314.900395 131.415831 
L 316.33913 133.411304 
L 317.777866 135.837231 
L 319.216601 136.134926 
L 320.655336 136.880718 
L 322.094071 116.784246 
L 323.532806 128.147045 
L 324.971542 133.096546 
L 326.410277 135.31049 
L 327.849012 137.038634 
L 329.287747 137.100774 
L 330.726482 118.789799 
L 332.165217 129.584413 
L 333.603953 134.370375 
L 335.042688 134.911785 
L 336.481423 137.127557 
L 337.920158 115.936341 
L 339.358893 127.890487 
L 340.797628 132.450796 
L 342.236364 135.206732 
L 343.675099 119.846736 
L 345.113834 128.100949 
L 346.552569 132.608917 
L 347.991304 134.828545 
L 349.43004 119.30279 
L 350.868775 128.073572 
L 352.30751 132.05172 
L 353.746245 130.674508 
L 355.18498 134.650902 
L 356.623715 136.604957 
L 358.062451 128.456229 
L 359.501186 134.216608 
L 360.939921 137.056422 
L 362.378656 117.733327 
L 363.817391 128.68312 
L 365.256126 132.996219 
L 366.694862 134.800585 
L 368.133597 128.033959 
L 369.572332 134.719559 
L 371.011067 136.624142 
L 372.449802 137.728668 
L 373.888538 116.75713 
L 375.327273 129.677747 
L 376.766008 133.154946 
L 378.204743 134.445644 
L 379.643478 119.17526 
L 381.082213 129.950729 
L 382.520949 133.184328 
L 383.959684 135.10378 
L 385.398419 136.102019 
L 386.837154 129.167627 
L 388.275889 135.135422 
L 389.714625 118.280143 
L 391.15336 129.825016 
L 392.592095 133.583466 
L 395.469565 136.359192 
L 396.9083 116.402397 
L 398.347036 129.960777 
L 399.785771 133.196912 
L 401.224506 135.233866 
L 402.663241 135.828945 
L 404.101976 136.956865 
L 405.540711 137.106721 
L 406.979447 137.514819 
L 408.418182 116.048683 
L 409.856917 128.424406 
L 411.295652 132.939323 
L 412.734387 119.19517 
L 414.173123 130.246607 
L 415.611858 132.612356 
L 417.050593 134.622355 
L 418.489328 135.932239 
L 419.928063 118.682607 
L 421.366798 129.768058 
L 422.805534 133.124174 
L 424.244269 134.687393 
L 425.683004 135.967273 
L 427.121739 117.131563 
L 428.560474 129.37845 
L 429.999209 132.614764 
L 431.437945 134.620019 
L 432.87668 135.957977 
L 434.315415 136.770168 
L 438.631621 137.918722 
L 440.070356 138.099311 
L 441.509091 138.412307 
L 447.264032 139.021621 
L 451.580237 139.222464 
L 453.018972 139.305882 
L 454.457708 120.37232 
L 455.896443 130.118236 
L 457.335178 133.767142 
L 458.773913 135.236841 
L 460.212648 136.017712 
L 461.651383 137.054372 
L 463.090119 137.476954 
L 464.528854 120.454416 
L 465.967589 129.316642 
L 467.406324 133.381846 
L 468.845059 135.195242 
L 470.283794 136.464181 
L 471.72253 137.019672 
L 473.161265 137.221727 
L 474.6 137.893306 
L 476.038735 119.651412 
L 477.47747 130.266849 
L 478.916206 133.510496 
L 480.354941 135.269949 
L 483.232411 136.879113 
L 484.671146 137.165046 
L 486.109881 119.636188 
L 487.548617 130.335656 
L 488.987352 133.587878 
L 491.864822 136.707954 
L 494.742292 137.367267 
L 496.181028 120.9807 
L 497.619763 130.133546 
L 499.058498 133.89728 
L 501.935968 136.516369 
L 504.813439 137.510918 
L 506.252174 121.387284 
L 506.252174 121.387284 
" clip-path="url(#p69f9693ef7)" style="fill: none; stroke: #ff7f0e; stroke-width: 1.5; stroke-linecap: square"/>
   </g>
   <g id="line2d_16">
    <path d="M 56 136.434242 
L 529.2 136.434242 
" clip-path="url(#p69f9693ef7)" style="fill: none; stroke-dasharray: 5.55,2.4; stroke-dashoffset: 0; stroke: #ff7f0e; stroke-width: 1.5"/>
   </g>
   <g id="patch_3">
    <path d="M 56 246.04 
L 56 10.8 
" style="fill: none; stroke: #000000; stroke-width: 0.8; stroke-linejoin: miter; stroke-linecap: square"/>
   </g>
   <g id="patch_4">
    <path d="M 529.2 246.04 
L 529.2 10.8 
" style="fill: none; stroke: #000000; stroke-width: 0.8; stroke-linejoin: miter; stroke-linecap: square"/>
   </g>
   <g id="patch_5">
    <path d="M 56 246.04 
L 529.2 246.04 
" style="fill: none; stroke: #000000; stroke-width: 0.8; stroke-linejoin: miter; stroke-linecap: square"/>
   </g>
   <g id="patch_6">
    <path d="M 56 10.8 
L 529.2 10.8 
" style="fill: none; stroke: #000000; stroke-width: 0.8; stroke-linejoin: miter; stroke-linecap: square"/>
   </g>
   <g id="legend_1">
    <g id="patch_7">
     <path d="M 63 77.5125 
L 245.901563 77.5125 
Q 247.901563 77.5125 247.901563 75.5125 
L 247.901563 17.8 
Q 247.901563 15.8 245.901563 15.8 
L 63 15.8 
Q 61 15.8 61 17.8 
L 61 75.5125 
Q 61 77.5125 63 77.5125 
z
" style="fill: #ffffff; opacity: 0.8; stroke: #cccccc; stroke-linejoin: miter"/>
    </g>
    <g id="line2d_17">
     <path d="M 65 23.898438 
L 75 23.898438 
L 85 23.898438 
" style="fill: none; stroke: #1f77b4; stroke-width: 1.5; stroke-linecap: square"/>
    </g>
    <g id="text_15">
     <!-- monoagent -->
     <g transform="translate(93 27.398438) scale(0.1 -0.1)">
      <defs>
       <path id="DejaVuSans-6d" d="M 3328 2828 
Q 3544 3216 3844 3400 
Q 4144 3584 4550 3584 
Q 5097 3584 5394 3201 
Q 5691 2819 5691 2113 
L 5691 0 
L 5113 0 
L 5113 2094 
Q 5113 2597 4934 2840 
Q 4756 3084 4391 3084 
Q 3944 3084 3684 2787 
Q 3425 2491 3425 1978 
L 3425 0 
L 2847 0 
L 2847 2094 
Q 2847 2600 2669 2842 
Q 2491 3084 2119 3084 
Q 1678 3084 1418 2786 
Q 1159 2488 1159 1978 
L 1159 0 
L 581 0 
L 581 3500 
L 1159 3500 
L 1159 2956 
Q 1356 3278 1631 3431 
Q 1906 3584 2284 3584 
Q 2666 3584 2933 3390 
Q 3200 3197 3328 2828 
z
" transform="scale(0.015625)"/>
      </defs>
      <use xlink:href="#DejaVuSans-6d"/>
      <use xlink:href="#DejaVuSans-6f" transform="translate(97.412109 0)"/>
      <use xlink:href="#DejaVuSans-6e" transform="translate(158.59375 0)"/>
      <use xlink:href="#DejaVuSans-6f" transform="translate(221.972656 0)"/>
      <use xlink:href="#DejaVuSans-61" transform="translate(283.154297 0)"/>
      <use xlink:href="#DejaVuSans-67" transform="translate(344.433594 0)"/>
      <use xlink:href="#DejaVuSans-65" transform="translate(407.910156 0)"/>
      <use xlink:href="#DejaVuSans-6e" transform="translate(469.433594 0)"/>
      <use xlink:href="#DejaVuSans-74" transform="translate(532.8125 0)"/>
     </g>
    </g>
    <g id="line2d_18">
     <path d="M 65 38.576562 
L 75 38.576562 
L 85 38.576562 
" style="fill: none; stroke-dasharray: 5.55,2.4; stroke-dashoffset: 0; stroke: #1f77b4; stroke-width: 1.5"/>
    </g>
    <g id="text_16">
     <!-- monoagent average (-0.0177) -->
     <g transform="translate(93 42.076562) scale(0.1 -0.1)">
      <defs>
       <path id="DejaVuSans-76" d="M 191 3500 
L 800 3500 
L 1894 563 
L 2988 3500 
L 3597 3500 
L 2284 0 
L 1503 0 
L 191 3500 
z
" transform="scale(0.015625)"/>
       <path id="DejaVuSans-28" d="M 1984 4856 
Q 1566 4138 1362 3434 
Q 1159 2731 1159 2009 
Q 1159 1288 1364 580 
Q 1569 -128 1984 -844 
L 1484 -844 
Q 1016 -109 783 600 
Q 550 1309 550 2009 
Q 550 2706 781 3412 
Q 1013 4119 1484 4856 
L 1984 4856 
z
" transform="scale(0.015625)"/>
       <path id="DejaVuSans-2d" d="M 313 2009 
L 1997 2009 
L 1997 1497 
L 313 1497 
L 313 2009 
z
" transform="scale(0.015625)"/>
       <path id="DejaVuSans-37" d="M 525 4666 
L 3525 4666 
L 3525 4397 
L 1831 0 
L 1172 0 
L 2766 4134 
L 525 4134 
L 525 4666 
z
" transform="scale(0.015625)"/>
       <path id="DejaVuSans-29" d="M 513 4856 
L 1013 4856 
Q 1481 4119 1714 3412 
Q 1947 2706 1947 2009 
Q 1947 1309 1714 600 
Q 1481 -109 1013 -844 
L 513 -844 
Q 928 -128 1133 580 
Q 1338 1288 1338 2009 
Q 1338 2731 1133 3434 
Q 928 4138 513 4856 
z
" transform="scale(0.015625)"/>
      </defs>
      <use xlink:href="#DejaVuSans-6d"/>
      <use xlink:href="#DejaVuSans-6f" transform="translate(97.412109 0)"/>
      <use xlink:href="#DejaVuSans-6e" transform="translate(158.59375 0)"/>
      <use xlink:href="#DejaVuSans-6f" transform="translate(221.972656 0)"/>
      <use xlink:href="#DejaVuSans-61" transform="translate(283.154297 0)"/>
      <use xlink:href="#DejaVuSans-67" transform="translate(344.433594 0)"/>
      <use xlink:href="#DejaVuSans-65" transform="translate(407.910156 0)"/>
      <use xlink:href="#DejaVuSans-6e" transform="translate(469.433594 0)"/>
      <use xlink:href="#DejaVuSans-74" transform="translate(532.8125 0)"/>
      <use xlink:href="#DejaVuSans-20" transform="translate(572.021484 0)"/>
      <use xlink:href="#DejaVuSans-61" transform="translate(603.808594 0)"/>
      <use xlink:href="#DejaVuSans-76" transform="translate(665.087891 0)"/>
      <use xlink:href="#DejaVuSans-65" transform="translate(724.267578 0)"/>
      <use xlink:href="#DejaVuSans-72" transform="translate(785.791016 0)"/>
      <use xlink:href="#DejaVuSans-61" transform="translate(826.904297 0)"/>
      <use xlink:href="#DejaVuSans-67" transform="translate(888.183594 0)"/>
      <use xlink:href="#DejaVuSans-65" transform="translate(951.660156 0)"/>
      <use xlink:href="#DejaVuSans-20" transform="translate(1013.183594 0)"/>
      <use xlink:href="#DejaVuSans-28" transform="translate(1044.970703 0)"/>
      <use xlink:href="#DejaVuSans-2d" transform="translate(1083.984375 0)"/>
      <use xlink:href="#DejaVuSans-30" transform="translate(1120.068359 0)"/>
      <use xlink:href="#DejaVuSans-2e" transform="translate(1183.691406 0)"/>
      <use xlink:href="#DejaVuSans-30" transform="translate(1215.478516 0)"/>
      <use xlink:href="#DejaVuSans-31" transform="translate(1279.101562 0)"/>
      <use xlink:href="#DejaVuSans-37" transform="translate(1342.724609 0)"/>
      <use xlink:href="#DejaVuSans-37" transform="translate(1406.347656 0)"/>
      <use xlink:href="#DejaVuSans-29" transform="translate(1469.970703 0)"/>
     </g>
    </g>
    <g id="line2d_19">
     <path d="M 65 53.254687 
L 75 53.254687 
L 85 53.254687 
" style="fill: none; stroke: #ff7f0e; stroke-width: 1.5; stroke-linecap: square"/>
    </g>
    <g id="text_17">
     <!-- multiagent -->
     <g transform="translate(93 56.754687) scale(0.1 -0.1)">
      <defs>
       <path id="DejaVuSans-75" d="M 544 1381 
L 544 3500 
L 1119 3500 
L 1119 1403 
Q 1119 906 1312 657 
Q 1506 409 1894 409 
Q 2359 409 2629 706 
Q 2900 1003 2900 1516 
L 2900 3500 
L 3475 3500 
L 3475 0 
L 2900 0 
L 2900 538 
Q 2691 219 2414 64 
Q 2138 -91 1772 -91 
Q 1169 -91 856 284 
Q 544 659 544 1381 
z
M 1991 3584 
L 1991 3584 
z
" transform="scale(0.015625)"/>
       <path id="DejaVuSans-6c" d="M 603 4863 
L 1178 4863 
L 1178 0 
L 603 0 
L 603 4863 
z
" transform="scale(0.015625)"/>
      </defs>
      <use xlink:href="#DejaVuSans-6d"/>
      <use xlink:href="#DejaVuSans-75" transform="translate(97.412109 0)"/>
      <use xlink:href="#DejaVuSans-6c" transform="translate(160.791016 0)"/>
      <use xlink:href="#DejaVuSans-74" transform="translate(188.574219 0)"/>
      <use xlink:href="#DejaVuSans-69" transform="translate(227.783203 0)"/>
      <use xlink:href="#DejaVuSans-61" transform="translate(255.566406 0)"/>
      <use xlink:href="#DejaVuSans-67" transform="translate(316.845703 0)"/>
      <use xlink:href="#DejaVuSans-65" transform="translate(380.322266 0)"/>
      <use xlink:href="#DejaVuSans-6e" transform="translate(441.845703 0)"/>
      <use xlink:href="#DejaVuSans-74" transform="translate(505.224609 0)"/>
     </g>
    </g>
    <g id="line2d_20">
     <path d="M 65 67.932813 
L 75 67.932813 
L 85 67.932813 
" style="fill: none; stroke-dasharray: 5.55,2.4; stroke-dashoffset: 0; stroke: #ff7f0e; stroke-width: 1.5"/>
    </g>
    <g id="text_18">
     <!-- multiagent average (0.0162) -->
     <g transform="translate(93 71.432813) scale(0.1 -0.1)">
      <defs>
       <path id="DejaVuSans-36" d="M 2113 2584 
Q 1688 2584 1439 2293 
Q 1191 2003 1191 1497 
Q 1191 994 1439 701 
Q 1688 409 2113 409 
Q 2538 409 2786 701 
Q 3034 994 3034 1497 
Q 3034 2003 2786 2293 
Q 2538 2584 2113 2584 
z
M 3366 4563 
L 3366 3988 
Q 3128 4100 2886 4159 
Q 2644 4219 2406 4219 
Q 1781 4219 1451 3797 
Q 1122 3375 1075 2522 
Q 1259 2794 1537 2939 
Q 1816 3084 2150 3084 
Q 2853 3084 3261 2657 
Q 3669 2231 3669 1497 
Q 3669 778 3244 343 
Q 2819 -91 2113 -91 
Q 1303 -91 875 529 
Q 447 1150 447 2328 
Q 447 3434 972 4092 
Q 1497 4750 2381 4750 
Q 2619 4750 2861 4703 
Q 3103 4656 3366 4563 
z
" transform="scale(0.015625)"/>
      </defs>
      <use xlink:href="#DejaVuSans-6d"/>
      <use xlink:href="#DejaVuSans-75" transform="translate(97.412109 0)"/>
      <use xlink:href="#DejaVuSans-6c" transform="translate(160.791016 0)"/>
      <use xlink:href="#DejaVuSans-74" transform="translate(188.574219 0)"/>
      <use xlink:href="#DejaVuSans-69" transform="translate(227.783203 0)"/>
      <use xlink:href="#DejaVuSans-61" transform="translate(255.566406 0)"/>
      <use xlink:href="#DejaVuSans-67" transform="translate(316.845703 0)"/>
      <use xlink:href="#DejaVuSans-65" transform="translate(380.322266 0)"/>
      <use xlink:href="#DejaVuSans-6e" transform="translate(441.845703 0)"/>
      <use xlink:href="#DejaVuSans-74" transform="translate(505.224609 0)"/>
      <use xlink:href="#DejaVuSans-20" transform="translate(544.433594 0)"/>
      <use xlink:href="#DejaVuSans-61" transform="translate(576.220703 0)"/>
      <use xlink:href="#DejaVuSans-76" transform="translate(637.5 0)"/>
      <use xlink:href="#DejaVuSans-65" transform="translate(696.679688 0)"/>
      <use xlink:href="#DejaVuSans-72" transform="translate(758.203125 0)"/>
      <use xlink:href="#DejaVuSans-61" transform="translate(799.316406 0)"/>
      <use xlink:href="#DejaVuSans-67" transform="translate(860.595703 0)"/>
      <use xlink:href="#DejaVuSans-65" transform="translate(924.072266 0)"/>
      <use xlink:href="#DejaVuSans-20" transform="translate(985.595703 0)"/>
      <use xlink:href="#DejaVuSans-28" transform="translate(1017.382812 0)"/>
      <use xlink:href="#DejaVuSans-30" transform="translate(1056.396484 0)"/>
      <use xlink:href="#DejaVuSans-2e" transform="translate(1120.019531 0)"/>
      <use xlink:href="#DejaVuSans-30" transform="translate(1151.806641 0)"/>
      <use xlink:href="#DejaVuSans-31" transform="translate(1215.429688 0)"/>
      <use xlink:href="#DejaVuSans-36" transform="translate(1279.052734 0)"/>
      <use xlink:href="#DejaVuSans-32" transform="translate(1342.675781 0)"/>
      <use xlink:href="#DejaVuSans-29" transform="translate(1406.298828 0)"/>
     </g>
    </g>
   </g>
  </g>
 </g>
 <defs>
  <clipPath id="p69f9693ef7">
   <rect x="56" y="10.8" width="473.2" height="235.24"/>
  </clipPath>
 </defs>
</svg>
